<?xml version="1.0" encoding="UTF-8" standalone="no"?>
<!-- Created with Inkscape (http://www.inkscape.org/) -->

<svg
   version="1.1"
   id="svg2"
   width="566.93335"
   height="566.93335"
   viewBox="0 0 566.93335 566.93335"
   sodipodi:docname="5596803_56241.eps"
   xmlns:inkscape="http://www.inkscape.org/namespaces/inkscape"
   xmlns:sodipodi="http://sodipodi.sourceforge.net/DTD/sodipodi-0.dtd"
   xmlns="http://www.w3.org/2000/svg"
   xmlns:svg="http://www.w3.org/2000/svg">
  <defs
     id="defs6" />
  <sodipodi:namedview
     id="namedview4"
     pagecolor="#ffffff"
     bordercolor="#000000"
     borderopacity="0.25"
     inkscape:showpageshadow="2"
     inkscape:pageopacity="0.0"
     inkscape:pagecheckerboard="0"
     inkscape:deskcolor="#d1d1d1" />
  <g
     id="g8"
     inkscape:groupmode="layer"
     inkscape:label="ink_ext_XXXXXX"
     transform="matrix(1.3333333,0,0,-1.3333333,0,566.93333)">
    <g
       id="g10"
       transform="scale(0.1)">
      <path
         d="m 1956.65,1265.82 c -19.17,30.51 -42.8,58.38 -70.92,84.52 -21.92,77.29 -38.07,156.36 -49.82,233.44 -23.51,154.11 -29.47,300.2 -29.47,408.23 0,43.95 0.99,81.61 2.17,110.96 51.75,1.05 101.4,7.63 148.79,19.71 43.05,-54.63 102.29,-127.25 175.36,-210.8 -102.86,-70.39 -161.78,-207.72 -151.29,-382.89 6.59,-109.79 -2.29,-185.2 -24.82,-263.17 m 779.45,85.5 c -9.38,46.53 -14.15,100.5 -10.8,164.99 126.53,116.24 343.48,320.8 518.99,513.13 13.58,-52.88 44.76,-98.7 86.92,-130.85 -63.7,-146.99 -153.09,-280.37 -262.41,-394.35 -129.92,-8.87 -246.69,-65.7 -332.7,-152.92 m -909.6,47.09 c -36.35,26.09 -77.94,50.86 -124.79,75.44 -53.82,28.24 -98.1,59.16 -133.43,84.61 -1.75,1.37 -3.47,2.71 -5.17,4.04 0.36,0.3 0.54,0.47 0.54,0.47 v 0 0 c 0,0 -75.04,230.32 -75.08,442.74 0,8.97 0.13,17.91 0.41,26.8 v 0 0 0 0 0 0 c -0.1,0.09 -6.42,5.54 -14.18,10.32 -0.2,0.13 -0.4,0.25 -0.6,0.37 v 0 c -5.94,3.6 -12.66,6.73 -18.03,6.73 -6.26,0 -10.71,-4.24 -10.03,-16.92 10.75,-200.29 -19.44,-319.43 -60.43,-468.78 -3.38,-2.61 -6.8,-5.21 -10.23,-7.8 -23.37,-16.41 -47.87,-32.58 -72.32,-42.43 -41.54,-16.74 -80.44,-36.07 -116.26,-57.86 -258.966,243.88 -420.623,589.9 -420.623,973.7 0,738.57 598.733,1337.3 1337.303,1337.3 576.79,0 1068.26,-365.09 1255.92,-876.83 -79.88,77.52 -187.53,124.87 -312.16,124.87 -199.21,0 -366.52,-119.52 -401.06,-321.38 -27.19,121.59 -99.68,212.35 -188.36,265.03 0,0.07 0,0.14 0,0.22 0,311.49 -233.97,315.1 -236.33,315.1 -12.43,0 -22.5,-10.08 -22.5,-22.52 0,-12.42 10.07,-22.5 22.5,-22.5 0.47,0 47.03,-0.38 94.2,-32.64 60.02,-41.06 92.48,-113.18 96.65,-214.56 -45.24,19.31 -93.13,29.37 -140.38,29.37 -0.85,0 -1.69,0 -2.54,-0.01 -270.61,-2.05 -489.99,-219.38 -489.99,-490 0,-100.91 30.5,-194.68 82.8,-272.62 -21.84,-2.77 -44.61,-4.23 -68.38,-4.23 -321.65,0 -453.5,356.86 -486.25,466.24 -8.67,28.97 -34.36,48.19 -62.89,50.02 -17.42,75.31 -24.79,145.13 -24.79,201.16 0,265.38 183.59,270.02 191.31,270.09 12.43,0 22.51,10.07 22.51,22.5 0,12.44 -10.08,22.51 -22.51,22.51 -2.36,0 -236.33,-3.61 -236.33,-315.1 0,-59.22 7.85,-133.12 26.39,-212.76 -19.84,-13.16 -31.76,-35.72 -31.42,-59.58 0.01,-6.66 0.96,-13.42 2.97,-20.13 31.84,-106.32 94.16,-258.89 210.31,-381.97 106.46,-112.81 237.41,-175.95 380.33,-183.77 -1.18,-29.72 -2.15,-67.57 -2.15,-111.64 0.07,-150.74 11.26,-373.98 65.07,-593.6"
         style="fill:#6cbfea;fill-opacity:1;fill-rule:nonzero;stroke:none"
         id="path14" />
      <path
         d="m 2129.37,363.43 c -854.62,0 -1547.425,87.308 -1547.425,195 0,29.242 51.098,56.992 142.633,81.89 1.977,-1.14 3.969,-2.261 5.996,-3.371 120.215,-66.027 256.399,-121.168 337.386,-121.168 23.04,0 41.62,4.469 54.09,14.418 v 0 c 19.35,15.442 27.89,47.762 28.84,91.352 28.74,-17.801 59.63,-33.051 92.41,-45.492 -0.91,0.132 -1.83,0.273 -2.74,0.402 33.14,-12.742 68.19,-22.59 104.81,-29.242 2.82,-0.91 5.67,-1.797 8.53,-2.649 0.43,-0.121 0.87,-0.191 1.3,-0.191 0.89,0 1.75,0.269 2.48,0.742 11.97,-1.922 24.09,-3.5 36.37,-4.73 0.75,-0.321 1.5,-0.641 2.26,-0.95 0.59,-0.242 1.2,-0.359 1.8,-0.359 0.87,0 1.72,0.238 2.45,0.688 18.95,-1.7 38.23,-2.571 57.82,-2.571 12.38,0 24.66,0.34 36.88,1.031 0.77,-0.48 1.66,-0.73 2.54,-0.73 1.07,0 2.13,0.352 3.02,1.059 23.49,1.511 46.64,4.273 69.36,8.211 0.05,-0.34 0.15,-0.68 0.28,-1.02 0.72,-1.77 2.43,-2.84 4.23,-2.84 0.58,0 1.16,0.11 1.73,0.34 6.47,2.641 12.93,5.48 19.37,8.5 43.58,9.398 85.33,23.18 124.46,40.84 0.44,-0.141 0.9,-0.211 1.37,-0.211 0.74,0 1.5,0.18 2.19,0.57 4.15,2.313 8.25,4.672 12.33,7.09 53.65,26.141 101.99,59.711 142.9,99.371 6.6,6.391 13.02,12.942 19.23,19.641 72.25,-168.02 235.98,-243.5 407.32,-243.653 h 0.01 c 0.17,0 0.32,0 0.48,0 v 0 c 17.75,0 35.46,0.723 53.01,2.184 2.83,-0.031 5.67,-0.051 8.51,-0.051 145.89,0 288.69,38.508 385.32,127.739 92.31,-85.54 215.86,-137.829 351.62,-137.829 157.76,0 299.04,70.61 393.95,181.95 113.87,-27.161 178.31,-58.11 178.31,-90.961 0,-107.692 -692.81,-195 -1547.43,-195"
         style="fill:#46a8d9;fill-opacity:1;fill-rule:nonzero;stroke:none"
         id="path16" />
      <path
         d="m 3508.53,2521.29 c 0,270.62 -190.57,493.89 -461.19,493.89 -199.21,0 -366.52,-119.52 -401.06,-321.38 -45.14,201.86 -215.12,318.73 -376.76,317.49 -270.61,-2.05 -489.99,-219.38 -489.99,-490 0,-113.41 38.52,-217.8 103.22,-300.83 45.95,-62.81 327.27,-438.53 736.98,-799.76 0,0 555.98,492.24 794.82,810.96 h -0.79 c 59.56,81.13 94.77,181.26 94.77,289.63"
         style="fill:#ee2a3c;fill-opacity:1;fill-rule:nonzero;stroke:none"
         id="path18" />
      <path
         d="m 2018.43,2304.53 c -6.79,9.02 -11.99,16.07 -15.39,20.7 -47.6,61.1 -75.94,137.9 -75.94,221.36 0,188.03 143.97,341.02 327.68,358.75 1.07,-0.83 2.17,-1.66 3.49,-2.38 91.71,-50.26 48.95,-235.67 19.81,-312.07 -6.8,-17.82 -14.74,-35.4 -23.72,-52.63 -12.64,-22.98 -26.89,-46.2 -42.93,-68.98 -50.37,-68.96 -117.49,-127.56 -193,-164.75"
         style="fill:#f25161;fill-opacity:1;fill-rule:nonzero;stroke:none"
         id="path20" />
      <path
         d="m 3508.53,2521.29 c 0,0.13 0,0.25 -0.01,0.38 0.01,-0.12 0.01,-0.26 0.01,-0.38 m -0.01,0.54 c 0,0.08 0,0.15 0,0.23 0,-0.08 0,-0.16 0,-0.23 m 0,0.39 c 0,0.06 0,0.16 0,0.23 0,-0.08 0,-0.15 0,-0.23 m 0,0.39 c 0,0.07 0,0.15 0,0.22 0,-0.08 0,-0.14 0,-0.22 m 0,0.41 c 0,0.07 0,0.13 0,0.2 0,-0.07 0,-0.13 0,-0.2 m 0,0.38 c 0,0.07 0,0.14 0,0.2 0,-0.06 0,-0.14 0,-0.2 m 0,0.39 c 0,0.07 0,0.13 0,0.2 0,-0.08 0,-0.12 0,-0.2 m 0,0.38 c 0,0.07 0,0.14 0,0.2 0,-0.08 0,-0.12 0,-0.2 m 0,0.4 c 0,0.07 0,0.12 -0.01,0.18 0.01,-0.06 0.01,-0.11 0.01,-0.18 m -0.01,0.39 c 0,0.06 0,0.11 0,0.18 0,-0.06 0,-0.12 0,-0.18 m 0,0.38 c 0,0.07 0,0.12 0,0.18 0,-0.06 0,-0.12 0,-0.18 m 0,0.39 c 0,0.05 0,0.13 0,0.17 0,-0.04 0,-0.13 0,-0.17 m -0.01,0.39 c 0,0.05 0,0.11 0,0.16 0,-0.04 0,-0.12 0,-0.16 m 0,0.38 c 0,0.07 0,0.1 0,0.17 0,-0.07 0,-0.11 0,-0.17 m 0,0.39 c 0,0.05 0,0.11 0,0.16 0,-0.06 0,-0.1 0,-0.16 m -0.01,0.38 c 0,0.05 0,0.09 0,0.14 0,-0.06 0,-0.08 0,-0.14 m 0,0.4 c 0,0.01 0,0.01 0,0.03 0,-0.02 0,-0.02 0,-0.03 m -0.03,2.24 c 0,0.01 0,-0.01 0,0.01 v -0.01 m 0,0.32 c 0,0.02 -0.01,0.06 -0.01,0.08 0,-0.01 0.01,-0.06 0.01,-0.08 m -0.01,0.4 c 0,0.01 0,0.03 0,0.05 0,-0.01 0,-0.04 0,-0.05 m -0.01,0.37 c 0,0.03 0,0.03 0,0.06 0,-0.01 0,-0.05 0,-0.06 m 0,0.38 c 0,0.02 0,0.04 0,0.06 0,-0.02 0,-0.04 0,-0.06 m -0.01,0.39 c 0,0.01 0,0.02 0,0.04 v -0.04 m -0.01,0.39 v 0.01 -0.01 m -0.01,0.38 v 0 0 m 0,0.37 v 0.01 -0.01"
         style="fill:#558eaa;fill-opacity:1;fill-rule:nonzero;stroke:none"
         id="path22" />
      <path
         d="m 2725.3,1516.31 c 0.46,9.01 1.09,18.2 1.88,27.62 6.39,76.15 -2.26,144.57 -23.5,203.21 129.58,110.42 303.88,278.11 506.97,522.74 119.47,143.9 151.42,286.44 85.01,458.5 -33.48,86.76 -82.96,172.04 -149.61,237.33 -17.88,17.51 -37.28,33.07 -57.52,47.57 244.78,-21.09 414.79,-228.9 419.88,-480.36 v -0.01 c 0,-0.13 0,-0.25 0,-0.37 v 0 c 0.01,-0.13 0.01,-0.25 0.01,-0.37 v -0.01 c 0,-0.13 0.01,-0.23 0.01,-0.35 0,-0.02 0,-0.03 0,-0.04 0,-0.13 0,-0.21 0.01,-0.33 0,-0.02 0,-0.04 0,-0.06 0,-0.11 0,-0.21 0,-0.32 0,-0.03 0,-0.03 0,-0.06 0,-0.11 0.01,-0.21 0.01,-0.32 0,-0.02 0,-0.04 0,-0.05 0,-0.11 0,-0.21 0,-0.32 0,-0.02 0.01,-0.06 0.01,-0.08 0,-0.11 0,-0.2 0,-0.31 0,-0.02 0,0 0,-0.01 0.01,-0.74 0.02,-1.48 0.03,-2.21 0,-0.02 0,-0.02 0,-0.03 0,-0.08 0,-0.18 0,-0.26 0,-0.05 0,-0.09 0,-0.14 0,-0.06 0.01,-0.16 0.01,-0.22 0,-0.05 0,-0.11 0,-0.16 0,-0.07 0,-0.16 0,-0.22 0,-0.07 0,-0.1 0,-0.17 0,-0.08 0,-0.14 0,-0.22 0,-0.05 0,-0.11 0,-0.16 0.01,-0.08 0.01,-0.14 0.01,-0.22 0,-0.04 0,-0.12 0,-0.17 0,-0.08 0,-0.13 0,-0.21 0,-0.06 0,-0.11 0,-0.18 0,-0.06 0,-0.14 0,-0.2 0,-0.07 0,-0.12 0,-0.18 0,-0.07 0,-0.15 0,-0.21 0.01,-0.06 0.01,-0.11 0.01,-0.18 0,-0.06 0,-0.14 0,-0.2 0,-0.06 0,-0.13 0,-0.2 0,-0.05 0,-0.13 0,-0.18 0,-0.07 0,-0.13 0,-0.2 0,-0.06 0,-0.13 0,-0.19 0,-0.06 0,-0.13 0,-0.2 0,-0.06 0,-0.12 0,-0.18 0,-0.07 0,-0.13 0,-0.2 0,-0.06 0,-0.13 0,-0.19 0,-0.07 0,-0.15 0,-0.22 0,-0.05 0,-0.11 0,-0.16 0,-0.07 0,-0.17 0,-0.23 0,-0.06 0,-0.1 0,-0.16 0,-0.08 0,-0.15 0,-0.23 0,-0.05 0,-0.11 0,-0.16 0.01,-0.13 0.01,-0.25 0.01,-0.38 v 0 c 0,-68 -13.87,-132.76 -38.91,-191.61 -91.18,-2.7 -169.57,-56.35 -207.69,-133.45 -16.1,-32.21 -25.16,-68.55 -25.16,-107 0,-20.64 2.61,-40.68 7.52,-59.79 -175.51,-192.33 -392.46,-396.89 -518.99,-513.13"
         style="fill:#d92431;fill-opacity:1;fill-rule:nonzero;stroke:none"
         id="path24" />
      <path
         d="m 3716.46,2090.17 c 0,-132.34 -107.29,-239.61 -239.62,-239.61 -132.33,0 -239.6,107.27 -239.6,239.61 0,132.33 107.27,239.61 239.6,239.61 132.33,0 239.62,-107.28 239.62,-239.61"
         style="fill:#2a4e98;fill-opacity:1;fill-rule:nonzero;stroke:none"
         id="path26" />
      <path
         d="m 3460.38,1850.15 c -48.4,3.19 -92.85,20.74 -129.17,48.44 0.15,0.35 0.27,0.62 0.42,0.97 36.2,-27.62 80.5,-45.17 128.72,-48.44 0.01,-0.32 0.02,-0.65 0.03,-0.97 m 45,1.21 c -0.01,0.3 -0.02,0.58 -0.02,0.88 81.09,9.62 149.78,59.74 185.25,129.56 -35.26,-70.17 -103.99,-120.63 -185.23,-130.44"
         style="fill:#1f82b2;fill-opacity:1;fill-rule:nonzero;stroke:none"
         id="path28" />
      <path
         d="m 3331.21,1898.59 c -42.16,32.15 -73.34,77.97 -86.92,130.85 0.18,0.19 0.37,0.4 0.55,0.6 13.63,-52.71 44.74,-98.4 86.79,-130.48 -0.15,-0.35 -0.27,-0.62 -0.42,-0.97"
         style="fill:#2485b3;fill-opacity:1;fill-rule:nonzero;stroke:none"
         id="path30" />
      <path
         d="m 3244.29,2029.44 c -4.91,19.11 -7.52,39.15 -7.52,59.79 0,38.45 9.06,74.79 25.16,107 -15.81,-31.98 -24.69,-67.98 -24.69,-106.06 0,-20.77 2.64,-40.91 7.6,-60.13 -0.18,-0.2 -0.37,-0.41 -0.55,-0.6"
         style="fill:#592630;fill-opacity:1;fill-rule:nonzero;stroke:none"
         id="path32" />
      <path
         d="m 3460.35,1851.12 c -48.22,3.27 -92.52,20.82 -128.72,48.44 -42.05,32.08 -73.16,77.77 -86.79,130.48 v 0 c -4.96,19.22 -7.6,39.36 -7.6,60.13 0,38.08 8.88,74.08 24.69,106.06 39.3,78.62 120.57,132.61 214.45,132.61 132.32,0 239.6,-107.28 239.6,-239.61 0,-38.62 -9.14,-75.12 -25.37,-107.43 -35.47,-69.82 -104.16,-119.94 -185.25,-129.56 -0.36,12.09 -0.74,24.05 -1.13,35.85 98.95,13.58 175.18,98.46 175.18,201.14 0,112.14 -90.9,203.03 -203.03,203.03 -112.13,0 -203.04,-90.89 -203.04,-203.03 0,-106.35 81.78,-193.61 185.89,-202.32 0.39,-11.8 0.77,-23.73 1.12,-35.79"
         style="fill:#1f3d76;fill-opacity:1;fill-rule:nonzero;stroke:none"
         id="path34" />
      <path
         d="m 3615.17,2090.17 c 0,-76.4 -61.93,-138.33 -138.33,-138.33 -76.4,0 -138.32,61.93 -138.32,138.33 0,76.4 61.92,138.32 138.32,138.32 76.4,0 138.33,-61.92 138.33,-138.32"
         style="fill:#5cb6de;fill-opacity:1;fill-rule:nonzero;stroke:none"
         id="path36" />
      <path
         d="m 1767.73,2176.07 c -0.04,-0.51 -6.3,-72.31 -6.3,-184.06 0.09,-195.05 18.79,-511.49 124.38,-784.38 52.87,-136.41 127.68,-262.251 234.06,-355.63 106.26,-93.422 244.42,-153.41 419.23,-157.738 16.08,-0.41 31.89,-0.621 47.46,-0.621 203.8,0 364.09,34.91 489.8,95.488 94.26,45.402 168.88,105.269 227.22,174.762 87.56,104.269 138.45,229.659 167.51,360.439 29.06,130.85 36.44,267.38 36.46,395.35 -0.01,137.42 -8.54,265.17 -8.53,364.32 0,12.43 -10.07,22.51 -22.5,22.51 -12.43,0 -22.51,-10.08 -22.51,-22.51 0.02,-101.57 8.53,-228.68 8.52,-364.32 0.01,-112.19 -5.82,-230.09 -26.8,-343.35 -15.72,-84.95 -39.94,-167.25 -76.37,-242.71 -54.74,-113.21 -136.41,-211.038 -259.8,-281.511 -123.4,-70.39 -289.4,-113.437 -513,-113.449 -15.17,0 -30.61,0.192 -46.31,0.602 -165.21,4.359 -291.51,59.738 -390.7,146.578 -74.31,65.191 -133.17,148.53 -179.5,241.83 -69.53,139.89 -110.66,301.99 -134.14,456.11 -23.51,154.11 -29.47,300.2 -29.47,408.23 0,55.03 1.55,100.2 3.08,131.54 0.78,15.67 1.54,27.88 2.12,36.15 0.28,4.13 0.52,7.27 0.69,9.37 0.08,1.05 0.14,1.83 0.19,2.35 l 0.06,0.73 c 1.08,12.38 -8.08,23.3 -20.46,24.38 -12.39,1.08 -23.3,-8.08 -24.38,-20.46 h -0.01"
         style="fill:#2a4e98;fill-opacity:1;fill-rule:nonzero;stroke:none"
         id="path38" />
      <path
         d="m 1793.95,2151.59 c -240.11,0 -388.53,160.39 -470.75,294.93 -109.27,178.79 -148.2,383.44 -148.2,515.34 0,311.49 233.97,315.1 236.33,315.1 12.43,0 22.51,-10.07 22.51,-22.51 0,-12.43 -10.08,-22.5 -22.51,-22.5 -7.72,-0.07 -191.31,-4.71 -191.31,-270.09 0,-125.78 37.19,-321.04 141.59,-491.87 76.21,-124.71 213.09,-273.38 432.34,-273.38 467.66,0 618.95,513.67 618.95,762.44 0,113.46 -32.67,193.35 -97.11,237.44 -47.17,32.26 -93.73,32.64 -94.2,32.64 -12.43,0 -22.5,10.08 -22.5,22.5 0,12.44 10.07,22.52 22.5,22.52 2.36,0 236.33,-3.61 236.33,-315.1 0,-134.96 -39.74,-340.95 -151.28,-514.37 -86,-133.71 -244.74,-293.09 -512.69,-293.09"
         style="fill:#2a4e98;fill-opacity:1;fill-rule:nonzero;stroke:none"
         id="path40" />
      <path
         d="m 1793.95,2103.77 c -154.72,0 -296.74,63.83 -410.7,184.59 -116.15,123.08 -178.47,275.65 -210.31,381.97 -11.14,37.2 9.99,76.41 47.2,87.55 37.22,11.13 76.42,-10 87.56,-47.2 32.75,-109.38 164.6,-466.24 486.25,-466.24 358.24,0 493.35,332.08 534.81,474.85 10.83,37.31 49.84,58.77 87.17,47.92 37.3,-10.82 58.76,-49.85 47.93,-87.15 -31.63,-108.93 -95.38,-264.92 -219.39,-389.51 -123.38,-123.94 -274.95,-186.78 -450.52,-186.78"
         style="fill:#a3dbf4;fill-opacity:1;fill-rule:nonzero;stroke:none"
         id="path42" />
      <path
         d="m 1808.61,2102.97 c 0.01,0.32 0.02,0.63 0.04,0.94 51.51,1.05 100.93,7.58 148.13,19.56 0.2,-0.27 0.41,-0.52 0.62,-0.79 -47.39,-12.08 -97.04,-18.66 -148.79,-19.71"
         style="fill:#49a0ce;fill-opacity:1;fill-rule:nonzero;stroke:none"
         id="path44" />
      <path
         d="m 1957.4,2122.68 c -0.21,0.27 -0.42,0.52 -0.62,0.79 107.92,27.39 204.26,83.27 287.69,167.08 124.01,124.59 187.76,280.58 219.39,389.51 1.83,6.33 2.74,12.7 2.8,18.98 0.03,-6.58 -0.87,-13.27 -2.8,-19.91 -31.63,-108.93 -95.38,-264.93 -219.39,-389.51 -83.28,-83.66 -179.4,-139.49 -287.07,-166.94"
         style="fill:#a82c3c;fill-opacity:1;fill-rule:nonzero;stroke:none"
         id="path46" />
      <path
         d="m 1763.58,2103.65 c -142.92,7.82 -273.87,70.96 -380.33,183.77 -116.15,123.08 -178.47,275.65 -210.31,381.97 -2.01,6.71 -2.96,13.47 -2.97,20.13 0.09,-6.36 1.06,-12.8 2.97,-19.19 31.84,-106.32 94.16,-258.89 210.31,-381.97 106.47,-112.82 237.44,-175.96 380.37,-183.77 -0.01,-0.31 -0.02,-0.62 -0.04,-0.94"
         style="fill:#49a0ce;fill-opacity:1;fill-rule:nonzero;stroke:none"
         id="path48" />
      <path
         d="m 1793.95,2102.83 c -10.18,0 -20.3,0.27 -30.37,0.82 0.02,0.32 0.03,0.63 0.04,0.94 10.06,-0.55 20.16,-0.82 30.33,-0.82 4.92,0 9.81,0.05 14.7,0.14 -0.02,-0.31 -0.03,-0.62 -0.04,-0.94 -4.87,-0.1 -9.75,-0.14 -14.66,-0.14"
         style="fill:#264789;fill-opacity:1;fill-rule:nonzero;stroke:none"
         id="path50" />
      <path
         d="m 1793.95,2103.77 c -10.17,0 -20.27,0.27 -30.33,0.82 -142.93,7.81 -273.9,70.95 -380.37,183.77 -116.15,123.08 -178.47,275.65 -210.31,381.97 -1.91,6.39 -2.88,12.83 -2.97,19.19 -0.01,23.83 12.22,46.23 32.29,59.14 -3.04,-12.09 -3.12,-25.15 0.55,-38.01 30.36,-106.32 89.81,-258.88 200.58,-381.97 108.68,-120.75 244.12,-184.59 391.69,-184.59 167.44,0 312,62.85 429.67,186.79 118.26,124.58 179.05,280.58 209.22,389.51 3.51,12.69 3.39,25.56 0.4,37.47 19.96,-12.84 32.19,-35.08 32.29,-58.82 -0.06,-6.28 -0.97,-12.65 -2.8,-18.98 -31.63,-108.93 -95.38,-264.92 -219.39,-389.51 -83.43,-83.81 -179.77,-139.69 -287.69,-167.08 -47.2,-11.98 -96.62,-18.51 -148.13,-19.56 -4.89,-0.09 -9.78,-0.14 -14.7,-0.14"
         style="fill:#6cb2d4;fill-opacity:1;fill-rule:nonzero;stroke:none"
         id="path52" />
      <path
         d="m 1545.29,3260.31 c 2.27,-42.67 -30.48,-79.11 -73.15,-81.38 l -47.76,-2.54 c -42.66,-2.27 -79.1,30.48 -81.37,73.15 -2.27,42.67 30.49,79.1 73.14,81.37 l 47.77,2.54 c 42.66,2.28 79.1,-30.47 81.37,-73.14"
         style="fill:#a3dbf4;fill-opacity:1;fill-rule:nonzero;stroke:none"
         id="path54" />
      <path
         d="m 2281.99,3248.06 c -4.48,-42.49 -42.55,-73.31 -85.05,-68.83 l -47.56,5 c -42.5,4.48 -73.32,42.56 -68.84,85.05 4.48,42.49 42.56,73.32 85.05,68.84 l 47.56,-5.01 c 42.49,-4.47 73.32,-42.55 68.84,-85.05"
         style="fill:#a3dbf4;fill-opacity:1;fill-rule:nonzero;stroke:none"
         id="path56" />
      <path
         d="m 2019.01,1019.48 c 0,-275.82 -258.35,-481.789 -560.14,-481.789 -301.77,0 -532.71,205.969 -532.71,481.789 0,231.98 148.14,402.29 377,494.52 65.62,26.46 131.72,98.42 174.81,98.42 31.83,0 104.29,-75.9 223.74,-138.57 213.4,-111.94 317.3,-227.82 317.3,-454.37"
         style="fill:#fabe87;fill-opacity:1;fill-rule:nonzero;stroke:none"
         id="path58" />
      <path
         d="m 1236.13,589.43 c -81.62,42.59 -147.39,98.761 -192.79,169.871 -45.402,71.121 -70.531,157.258 -70.543,260.179 0.016,115.1 33.863,214.64 93.893,297 60.03,82.34 146.33,147.51 251.36,193.37 27.22,11.92 53.99,32.42 78.87,51.58 1.98,1.53 2.35,4.37 0.82,6.35 -1.52,1.98 -4.36,2.35 -6.34,0.82 -24.82,-19.15 -51.24,-39.23 -76.98,-50.45 -106.23,-46.38 -193.91,-112.48 -255.05,-196.34 -61.14,-83.85 -95.64,-185.45 -95.628,-302.33 -0.008,-104.378 25.567,-192.398 71.968,-265.05 46.38,-72.66 113.5,-129.871 196.23,-173.032 2.22,-1.148 4.95,-0.289 6.11,1.922 1.16,2.219 0.3,4.961 -1.92,6.11 v 0"
         style="fill:#f79461;fill-opacity:1;fill-rule:nonzero;stroke:none"
         id="path60" />
      <path
         d="m 1542.83,1566.89 c 34.77,-27.26 80.86,-63.93 138.99,-96.97 98.19,-55.81 170.76,-112.39 218.77,-182.83 48,-70.44 71.75,-154.95 71.78,-267.61 0,-179.871 -103.69,-335.441 -252.96,-418.621 -2.19,-1.211 -2.97,-3.968 -1.75,-6.16 1.21,-2.179 3.97,-2.961 6.15,-1.75 151.87,84.602 257.6,243.082 257.61,426.531 0.02,113.88 -24.16,200.59 -73.35,272.71 -49.17,72.13 -123.01,129.46 -221.77,185.6 -57.43,32.64 -103.09,68.94 -137.88,96.22 -1.97,1.55 -4.82,1.2 -6.36,-0.77 -1.54,-1.96 -1.2,-4.81 0.77,-6.35 v 0"
         style="fill:#f79461;fill-opacity:1;fill-rule:nonzero;stroke:none"
         id="path62" />
      <path
         d="m 1356.5,553.332 c -175.28,51.969 -300.41,236.367 -300.43,466.148 0.09,230.45 113.09,398.85 288.09,490.47 22.92,12.02 45.26,32.54 66.03,51.71 1.86,1.71 1.97,4.6 0.26,6.46 -1.71,1.85 -4.6,1.97 -6.45,0.25 -20.71,-19.15 -42.75,-39.2 -64.08,-50.32 -177.75,-92.85 -293.07,-265.05 -292.99,-498.57 -0.01,-232.98 127.02,-421.449 306.97,-474.91 2.42,-0.711 4.96,0.66 5.68,3.078 0.72,2.422 -0.66,4.973 -3.08,5.684 v 0"
         style="fill:#f79461;fill-opacity:1;fill-rule:nonzero;stroke:none"
         id="path64" />
      <path
         d="m 1530.43,1567.12 c 29.05,-27.26 67.54,-63.95 116.15,-97.05 81.92,-55.76 142.42,-112.24 182.52,-182.69 40.09,-70.45 59.98,-155.14 59.99,-267.9 0,-105.921 -38.74,-206.48 -97.72,-288.781 -58.95,-82.301 -138.13,-146.258 -218.4,-178.988 -2.34,-0.949 -3.46,-3.621 -2.51,-5.961 0.95,-2.328 3.62,-3.461 5.96,-2.5 82.15,33.531 162.46,98.52 222.38,182.129 59.9,83.601 99.42,185.922 99.43,294.101 0.01,113.79 -20.14,200.31 -61.19,272.42 -41.04,72.11 -102.79,129.55 -185.31,185.73 -47.89,32.59 -85.98,68.86 -115.04,96.15 -1.85,1.73 -4.74,1.64 -6.46,-0.2 -1.73,-1.84 -1.64,-4.73 0.2,-6.46 v 0"
         style="fill:#f79461;fill-opacity:1;fill-rule:nonzero;stroke:none"
         id="path66" />
      <path
         d="m 1399.91,548.199 c -62.55,25.723 -119.23,85.86 -160.12,168.551 -40.91,82.672 -66.04,187.73 -66.03,302.73 0.02,230.91 81.84,399.55 207.49,490.68 16.8,12.24 32.85,32.76 47.86,51.94 1.62,2.06 1.25,5.04 -0.81,6.65 -2.06,1.61 -5.04,1.25 -6.65,-0.81 -14.92,-19.14 -30.87,-39.2 -45.97,-50.11 -128.66,-93.32 -211.42,-265.29 -211.4,-498.35 0,-116.378 25.39,-222.789 67.01,-306.929 41.64,-84.11 99.51,-146.11 165.02,-173.11 2.42,-1 5.19,0.161 6.18,2.579 1,2.421 -0.16,5.191 -2.58,6.179 v 0"
         style="fill:#f79461;fill-opacity:1;fill-rule:nonzero;stroke:none"
         id="path68" />
      <path
         d="m 1512.79,1567.57 c 20.94,-27.27 48.7,-63.98 83.84,-97.17 58.96,-55.69 102.5,-112.02 131.46,-182.56 28.94,-70.54 43.33,-155.47 43.33,-268.36 0,-101.75 -29.29,-200.05 -72.62,-282.019 -43.31,-81.973 -100.73,-147.551 -156.31,-183.813 -2.19,-1.429 -2.81,-4.367 -1.38,-6.558 1.43,-2.192 4.37,-2.809 6.56,-1.379 57.39,37.5 115.52,104.148 159.5,187.32 43.96,83.16 73.72,182.867 73.73,286.449 0,113.66 -14.49,199.94 -44.04,271.96 -29.55,72.03 -74.15,129.61 -133.72,185.86 -34.43,32.5 -61.88,68.75 -82.83,96.04 -1.59,2.08 -4.57,2.47 -6.64,0.87 -2.08,-1.59 -2.47,-4.57 -0.88,-6.65 v 0.01"
         style="fill:#f79461;fill-opacity:1;fill-rule:nonzero;stroke:none"
         id="path70" />
      <path
         d="m 1444.54,547.16 c -40.18,25.281 -81.85,85.809 -112.93,168.82 -31.16,83 -52.01,188.399 -52,303.5 -0.05,231.26 53.61,400.54 135.24,491.29 11.12,12.43 21.47,32.86 31.27,52.06 1.21,2.38 0.26,5.28 -2.11,6.49 -2.38,1.21 -5.29,0.27 -6.5,-2.11 -9.69,-19.12 -20.16,-39.27 -29.85,-49.98 -84.08,-93.72 -137.67,-265.04 -137.72,-497.75 0.01,-116.281 21.03,-222.718 52.62,-306.89 31.66,-84.18 73.58,-146.149 116.82,-173.602 2.26,-1.429 5.24,-0.75 6.67,1.5 1.42,2.262 0.75,5.242 -1.51,6.672 v 0"
         style="fill:#f79461;fill-opacity:1;fill-rule:nonzero;stroke:none"
         id="path72" />
      <path
         d="m 1496.91,1568.29 c 13.65,-27.26 31.71,-63.95 54.65,-97.18 38.38,-55.65 66.78,-111.99 85.7,-182.72 18.91,-70.72 28.3,-155.9 28.3,-268.91 0.01,-106.32 -23.93,-208.5 -57.33,-292.218 -33.36,-83.711 -76.38,-149.024 -113.6,-181.282 -2.01,-1.742 -2.23,-4.8 -0.48,-6.808 1.75,-2.024 4.81,-2.231 6.82,-0.481 39.1,34.008 82.37,100.219 116.23,184.989 33.81,84.75 58.02,188.019 58.03,295.8 0,113.53 -9.42,199.57 -28.63,271.41 -19.2,71.84 -48.23,129.4 -87.08,185.7 -22.43,32.47 -40.32,68.74 -53.97,96.03 -1.19,2.38 -4.1,3.35 -6.48,2.15 -2.39,-1.19 -3.35,-4.09 -2.16,-6.48 v 0"
         style="fill:#f79461;fill-opacity:1;fill-rule:nonzero;stroke:none"
         id="path74" />
      <path
         d="m 1463.86,545.461 c -8.03,12.449 -16.48,34.098 -24.35,62.918 -23.69,86.551 -42.82,237.91 -42.81,411.101 -0.03,231.67 21.83,401.77 55.13,493.01 4.41,12.16 8.61,32.43 12.57,51.64 0.49,2.38 -1.04,4.71 -3.42,5.2 -2.39,0.49 -4.72,-1.04 -5.21,-3.42 -3.92,-19.12 -8.2,-39.42 -12.22,-50.4 -33.94,-93.23 -55.63,-263.73 -55.66,-496.03 0,-115.91 8.51,-222.019 21.28,-305.859 6.38,-41.93 13.83,-78.281 21.84,-107.562 8.03,-29.297 16.53,-51.457 25.44,-65.368 1.31,-2.05 4.04,-2.64 6.09,-1.32 2.05,1.309 2.64,4.039 1.32,6.09 v 0"
         style="fill:#f79461;fill-opacity:1;fill-rule:nonzero;stroke:none"
         id="path76" />
      <path
         d="m 1479.89,1569.57 c 5.54,-27.27 12.87,-63.84 22.12,-96.91 31.22,-111.49 46.46,-226.78 46.47,-453.18 0,-106.75 -11.02,-209.05 -25.9,-292.871 -14.85,-83.777 -33.66,-149.238 -48.85,-181.668 -1.03,-2.203 -0.08,-4.832 2.12,-5.859 2.21,-1.031 4.83,-0.082 5.86,2.129 15.8,33.84 34.56,99.527 49.55,183.859 14.96,84.289 26.03,187.051 26.03,294.41 0.01,226.7 -15.31,343.17 -46.8,455.56 -9.13,32.62 -16.42,69.01 -21.97,96.29 -0.48,2.39 -2.81,3.93 -5.2,3.44 -2.38,-0.49 -3.92,-2.81 -3.43,-5.2 v 0"
         style="fill:#f79461;fill-opacity:1;fill-rule:nonzero;stroke:none"
         id="path78" />
      <path
         d="m 1458.38,537.199 c -19.59,0 -38.87,0.871 -57.82,2.571 0.23,0.128 0.45,0.289 0.66,0.468 18.88,-1.687 38.13,-2.547 57.65,-2.547 12.01,0 23.94,0.321 35.8,0.969 0.19,-0.16 0.38,-0.308 0.59,-0.43 -12.22,-0.691 -24.5,-1.031 -36.88,-1.031"
         style="fill:#4997b9;fill-opacity:1;fill-rule:nonzero;stroke:none"
         id="path80" />
      <path
         d="m 1458.87,537.691 c -19.52,0 -38.77,0.86 -57.65,2.547 0.54,0.473 0.98,1.071 1.27,1.782 1,2.421 -0.16,5.191 -2.58,6.179 v 0 c -13.7,5.641 -27.13,12.93 -40.17,21.742 13.98,0.489 27.79,1.399 41.36,2.7 12.48,-14.102 25.32,-25.422 38.28,-33.653 0.8,-0.508 1.69,-0.75 2.58,-0.75 1.6,0 3.17,0.801 4.09,2.25 1.42,2.262 0.75,5.242 -1.51,6.672 v 0 c -10.47,6.59 -21.06,15.578 -31.52,26.738 9.01,1.032 17.93,2.25 26.74,3.641 5.38,-15.508 10.95,-27.891 16.69,-36.848 0.84,-1.312 2.26,-2.019 3.71,-2.019 0.82,0 1.64,0.219 2.38,0.699 2.05,1.309 2.64,4.039 1.32,6.09 v 0 c -5.01,7.769 -10.18,19.109 -15.27,33.539 13.98,2.41 27.73,5.281 41.17,8.582 -5.56,-17.492 -11,-31.883 -16.03,-42.641 -1.03,-2.203 -0.08,-4.832 2.12,-5.859 0.61,-0.281 1.24,-0.41 1.87,-0.41 1.65,0 3.24,0.937 3.99,2.539 5.75,12.301 11.89,28.828 18.09,48.93 15.09,3.988 29.8,8.531 44.14,13.609 -16.69,-24.449 -33.52,-44.078 -49.31,-57.77 -2.01,-1.742 -2.23,-4.8 -0.48,-6.808 0.17,-0.192 0.34,-0.363 0.52,-0.512 -11.86,-0.648 -23.79,-0.969 -35.8,-0.969"
         style="fill:#f9a972;fill-opacity:1;fill-rule:nonzero;stroke:none"
         id="path82" />
      <path
         d="m 1500.82,538.559 c 0.05,0.043 0.1,0.082 0.15,0.132 0.14,0.118 0.28,0.239 0.43,0.368 23.27,1.5 46.22,4.23 68.73,8.113 0.01,-0.133 0.03,-0.262 0.05,-0.402 -22.72,-3.938 -45.87,-6.7 -69.36,-8.211 m 94.97,13.191 c 0.5,0.238 1.01,0.48 1.51,0.711 42.89,9.328 84.04,22.91 122.63,40.25 0.1,-0.051 0.21,-0.09 0.32,-0.121 -39.13,-17.66 -80.88,-31.442 -124.46,-40.84 m 140.35,48.289 c 0.75,0.449 1.52,0.91 2.28,1.359 52.71,25.903 100.27,59.012 140.62,98.012 -40.91,-39.66 -89.25,-73.23 -142.9,-99.371"
         style="fill:#4997b9;fill-opacity:1;fill-rule:nonzero;stroke:none"
         id="path84" />
      <path
         d="m 1501.4,539.059 c 18.86,16.511 38.68,40.492 57.94,70.41 30.21,11.761 58.61,25.972 84.91,42.429 -32.09,-41.968 -67.28,-75.757 -101.76,-98.25 -2.19,-1.429 -2.81,-4.367 -1.38,-6.558 0.91,-1.391 2.43,-2.149 3.98,-2.149 0.89,0 1.78,0.25 2.58,0.77 41.27,26.969 82.93,69.008 119.42,121.43 115.67,82.14 185.44,211.179 185.44,368.009 0,218.35 -67.41,346.64 -263.32,455.85 -18.83,19.29 -35.33,39.25 -49.61,57.4 2.57,1.16 4.94,2.33 7.11,3.47 26.68,-24.86 59.85,-54.54 99.87,-81.8 81.92,-55.76 142.42,-112.24 182.52,-182.69 33.47,-58.83 52.86,-127.58 58.36,-214.31 -15.66,-47.8 -27.87,-99.269 -27.87,-148.808 0,-20.18 0.9,-39.633 2.64,-58.352 -17.05,-48.551 -41.44,-94.148 -70.86,-135.211 -58.95,-82.301 -138.13,-146.258 -218.4,-178.988 -1.88,-0.762 -2.97,-2.629 -2.84,-4.539 -22.51,-3.883 -45.46,-6.613 -68.73,-8.113 m 95.9,13.402 c 74.77,35.488 146.66,96.41 201.5,172.918 26.4,36.84 48.83,77.312 65.68,120.32 4.44,-34.328 11.82,-66.09 21.77,-95.359 -43.22,-61.301 -100.53,-112.531 -166.84,-149.481 -2.19,-1.211 -2.97,-3.968 -1.75,-6.16 0.52,-0.937 1.34,-1.617 2.27,-1.988 -38.59,-17.34 -79.74,-30.922 -122.63,-40.25 m 141.12,48.937 c 59.45,35.684 111.21,82.891 151.52,138.532 2.62,-7.11 5.39,-14.039 8.31,-20.84 -6.2,-6.711 -12.62,-13.281 -19.21,-19.68 -40.35,-39 -87.91,-72.109 -140.62,-98.012 m 156.5,493.532 c -7.24,77.98 -26.42,141.71 -57.88,196.97 -41.04,72.11 -102.79,129.55 -185.31,185.73 -38.43,26.15 -70.54,54.68 -96.75,79.03 0.17,0.1 0.33,0.21 0.5,0.32 33.05,-25.87 75,-57.88 126.34,-87.06 98.19,-55.81 170.76,-112.39 218.77,-182.83 15.61,-22.91 28.66,-47.31 39.15,-73.67 -7.74,-22.02 -16.48,-44.83 -26.16,-69.17 -6.21,-15.64 -12.57,-32.17 -18.66,-49.32 m 49.28,131.4 c -10,23.34 -22.04,45.2 -36.13,65.86 -49.17,72.13 -123.01,129.46 -221.77,185.6 -39.82,22.63 -73.99,47.02 -102.79,68.95 32.48,-23.01 71.6,-49.18 117.73,-73.37 118.5,-62.17 203.23,-125.55 255.15,-208.43 -3.7,-12.74 -7.77,-25.57 -12.19,-38.61 m -380.87,278.63 c -11.87,6.36 -22.81,12.95 -33.02,19.62 -3.15,5.78 -6.18,11.48 -9.07,17.04 3.26,0.96 6.34,1.99 9.23,3.05 9.83,-12.54 20.77,-26.05 32.86,-39.71 m -50.27,31.45 c -1.09,0.78 -2.17,1.56 -3.25,2.34 0.62,0.13 1.23,0.26 1.83,0.4 0.47,-0.91 0.94,-1.82 1.42,-2.74"
         style="fill:#f9a972;fill-opacity:1;fill-rule:nonzero;stroke:none"
         id="path86" />
      <path
         d="m 1720.25,592.59 c -0.11,0.031 -0.22,0.07 -0.32,0.121 -0.93,0.371 -1.75,1.051 -2.27,1.988 -1.22,2.192 -0.44,4.949 1.75,6.16 66.31,36.95 123.62,88.18 166.84,149.481 1.2,-3.508 2.42,-6.969 3.69,-10.41 -40.31,-55.641 -92.07,-102.848 -151.52,-138.532 -0.76,-0.449 -1.53,-0.91 -2.28,-1.359 -5.25,-2.559 -10.53,-5.039 -15.89,-7.449 m 219.49,620.83 c -10.49,26.36 -23.54,50.76 -39.15,73.67 -48.01,70.44 -120.58,127.02 -218.77,182.83 -51.34,29.18 -93.29,61.19 -126.34,87.06 3.27,2.11 5.58,3.86 6.89,4.91 6.71,-4.84 13.75,-9.92 21.14,-15.15 28.8,-21.93 62.97,-46.32 102.79,-68.95 98.76,-56.14 172.6,-113.47 221.77,-185.6 14.09,-20.66 26.13,-42.52 36.13,-65.86 -1.44,-4.28 -2.93,-8.58 -4.46,-12.91"
         style="fill:#f68454;fill-opacity:1;fill-rule:nonzero;stroke:none"
         id="path88" />
      <path
         d="m 1570.18,546.77 c -0.02,0.14 -0.04,0.269 -0.05,0.402 -0.13,1.91 0.96,3.777 2.84,4.539 80.27,32.73 159.45,96.687 218.4,178.988 29.42,41.063 53.81,86.66 70.86,135.211 0.64,-6.828 1.39,-13.57 2.25,-20.211 -16.85,-43.008 -39.28,-83.48 -65.68,-120.32 -54.84,-76.508 -126.73,-137.43 -201.5,-172.918 -0.5,-0.231 -1.01,-0.473 -1.51,-0.711 -8.46,-1.82 -17.02,-3.488 -25.61,-4.98 m 317.28,526.3 c -5.5,86.73 -24.89,155.48 -58.36,214.31 -40.1,70.45 -100.6,126.93 -182.52,182.69 -40.02,27.26 -73.19,56.94 -99.87,81.8 3.2,1.69 5.96,3.32 8.27,4.79 26.21,-24.35 58.32,-52.88 96.75,-79.03 82.52,-56.18 144.27,-113.62 185.31,-185.73 31.46,-55.26 50.64,-118.99 57.88,-196.97 -2.55,-7.19 -5.05,-14.48 -7.46,-21.86"
         style="fill:#f68454;fill-opacity:1;fill-rule:nonzero;stroke:none"
         id="path90" />
      <path
         d="m 1394.05,540.391 c -12.28,1.23 -24.4,2.808 -36.37,4.73 0.21,0.129 0.41,0.289 0.6,0.461 11.25,-1.801 22.62,-3.301 34.13,-4.492 0.54,-0.238 1.09,-0.469 1.64,-0.699 m -48.68,6.828 c -36.62,6.652 -71.67,16.5 -104.81,29.242 0.91,-0.129 1.83,-0.27 2.74,-0.402 31.15,-11.821 63.96,-21.079 98.15,-27.547 1.3,-0.43 2.61,-0.864 3.92,-1.293"
         style="fill:#4997b9;fill-opacity:1;fill-rule:nonzero;stroke:none"
         id="path92" />
      <path
         d="m 1392.41,541.09 c -11.51,1.191 -22.88,2.691 -34.13,4.492 0.59,0.539 1.05,1.25 1.3,2.066 0.72,2.422 -0.66,4.973 -3.08,5.684 v 0 c -15.31,4.539 -30.23,10.09 -44.73,16.59 7.69,-0.274 15.43,-0.41 23.22,-0.41 2.98,0 5.98,0.019 8.95,0.058 15.55,-11.64 31.75,-21.199 48.47,-28.48 m -50.96,7.422 c -34.19,6.468 -67,15.726 -98.15,27.547 14.75,-2.137 29.74,-3.77 44.94,-4.868 17.1,-8.921 34.85,-16.5 53.21,-22.679"
         style="fill:#f9a972;fill-opacity:1;fill-rule:nonzero;stroke:none"
         id="path94" />
      <path
         d="m 1357.68,545.121 c -4.12,0.66 -8.23,1.359 -12.31,2.098 -1.31,0.429 -2.62,0.863 -3.92,1.293 -18.36,6.179 -36.11,13.758 -53.21,22.679 7.79,-0.562 15.63,-0.992 23.53,-1.269 14.5,-6.5 29.42,-12.051 44.73,-16.59 v 0 c 2.42,-0.711 3.8,-3.262 3.08,-5.684 -0.25,-0.816 -0.71,-1.527 -1.3,-2.066 -0.19,-0.172 -0.39,-0.332 -0.6,-0.461"
         style="fill:#f68454;fill-opacity:1;fill-rule:nonzero;stroke:none"
         id="path96" />
      <path
         d="m 1400.56,539.77 c -2.17,0.191 -4.35,0.402 -6.51,0.621 -0.55,0.23 -1.1,0.461 -1.64,0.699 -16.72,7.281 -32.92,16.84 -48.47,28.48 5.31,0.059 10.55,0.192 15.8,0.371 13.04,-8.812 26.47,-16.101 40.17,-21.742 v 0 c 2.42,-0.988 3.58,-3.758 2.58,-6.179 -0.29,-0.711 -0.73,-1.309 -1.27,-1.782 -0.21,-0.179 -0.43,-0.34 -0.66,-0.468"
         style="fill:#f68454;fill-opacity:1;fill-rule:nonzero;stroke:none"
         id="path98" />
      <path
         d="m 1545.09,544.941 c -1.55,0 -3.07,0.758 -3.98,2.149 -1.43,2.191 -0.81,5.129 1.38,6.558 34.48,22.493 69.67,56.282 101.76,98.25 7.81,4.891 15.41,9.961 22.84,15.243 -36.49,-52.422 -78.15,-94.461 -119.42,-121.43 -0.8,-0.52 -1.69,-0.77 -2.58,-0.77 M 1589.21,1491 c -7.35,4.11 -14.89,8.18 -22.61,12.23 -1.1,0.58 -2.19,1.15 -3.27,1.73 -12.09,13.66 -23.03,27.17 -32.86,39.71 3.28,1.21 6.33,2.46 9.13,3.73 14.28,-18.15 30.78,-38.11 49.61,-57.4"
         style="fill:#f68454;fill-opacity:1;fill-rule:nonzero;stroke:none"
         id="path100" />
      <path
         d="m 1441.96,538.238 c -0.89,0 -1.78,0.242 -2.58,0.75 -12.96,8.231 -25.8,19.551 -38.28,33.653 3.99,0.39 7.96,0.808 11.92,1.257 10.46,-11.16 21.05,-20.148 31.52,-26.738 v 0 c 2.26,-1.43 2.93,-4.41 1.51,-6.672 -0.92,-1.449 -2.49,-2.25 -4.09,-2.25"
         style="fill:#f68454;fill-opacity:1;fill-rule:nonzero;stroke:none"
         id="path102" />
      <path
         d="m 1495.26,538.23 c -0.21,0.122 -0.4,0.27 -0.59,0.43 -0.18,0.149 -0.35,0.32 -0.52,0.512 -1.75,2.008 -1.53,5.066 0.48,6.808 15.79,13.692 32.62,33.321 49.31,57.77 5.18,1.84 10.32,3.75 15.4,5.719 -19.26,-29.918 -39.08,-53.899 -57.94,-70.41 -0.15,-0.129 -0.29,-0.25 -0.43,-0.368 -0.05,-0.05 -0.1,-0.089 -0.15,-0.132 -1.85,-0.118 -3.7,-0.227 -5.56,-0.329 m 35.05,986.35 c -5.99,3.92 -11.72,7.88 -17.25,11.83 -0.48,0.92 -0.95,1.83 -1.42,2.74 3.36,0.75 6.56,1.58 9.6,2.47 2.89,-5.56 5.92,-11.26 9.07,-17.04"
         style="fill:#f68454;fill-opacity:1;fill-rule:nonzero;stroke:none"
         id="path104" />
      <path
         d="m 1460.16,538.672 c -1.45,0 -2.87,0.707 -3.71,2.019 -5.74,8.957 -11.31,21.34 -16.69,36.848 2.96,0.473 5.88,0.949 8.83,1.461 5.09,-14.43 10.26,-25.77 15.27,-33.539 v 0 c 1.32,-2.051 0.73,-4.781 -1.32,-6.09 -0.74,-0.48 -1.56,-0.699 -2.38,-0.699"
         style="fill:#f68454;fill-opacity:1;fill-rule:nonzero;stroke:none"
         id="path106" />
      <path
         d="m 1477.72,538.672 c -0.63,0 -1.26,0.129 -1.87,0.41 -2.2,1.027 -3.15,3.656 -2.12,5.859 5.03,10.758 10.47,25.149 16.03,42.641 3.37,0.828 6.71,1.68 10.04,2.559 -6.2,-20.102 -12.34,-36.629 -18.09,-48.93 -0.75,-1.602 -2.34,-2.539 -3.99,-2.539"
         style="fill:#f68454;fill-opacity:1;fill-rule:nonzero;stroke:none"
         id="path108" />
      <path
         d="m 1446.14,2033.01 c 10.77,-200.75 -19.58,-319.97 -60.71,-469.8 0,0 32.31,-27.92 90.33,-27.92 57.29,0 87.89,27.68 87.89,27.68 0,0 -81.52,250.19 -74.67,469.54 0,0 -44.89,38.86 -42.84,0.5"
         style="fill:#2fa347;fill-opacity:1;fill-rule:nonzero;stroke:none"
         id="path110" />
      <path
         d="m 1429.67,1555.9 c -19.8,0 -24.32,17.45 -22.2,31.18 16.71,108.66 26.56,111.23 36.25,176.77 3.47,-27.51 7.22,-55.01 9.18,-82.68 1.91,-27.06 8.82,-55.35 3.99,-82.28 -2.17,-12.12 -9.08,-41.74 -24.59,-42.9 -0.9,-0.06 -1.78,-0.09 -2.63,-0.09"
         style="fill:#6dbf5c;fill-opacity:1;fill-rule:nonzero;stroke:none"
         id="path112" />
      <path
         d="m 1488.98,2032.51 v 0 0 m 0,0 v 0 0 m -14.18,10.32 c -0.2,0.12 -0.4,0.25 -0.6,0.37 v 0 c 0.2,-0.12 0.4,-0.24 0.6,-0.37"
         style="fill:#48a197;fill-opacity:1;fill-rule:nonzero;stroke:none"
         id="path114" />
      <path
         d="m 1475.76,1535.29 v 0 l -2.23,0.08 c 6.15,1.02 12.29,2.74 18.41,5.48 24.64,10.96 27.69,41.13 26.79,64.34 -1.58,40.82 -15.78,80.63 -21.87,120.78 -28.69,189.04 -18.53,244.57 -20.99,292.68 -0.29,5.62 -0.6,14.69 -1.67,24.55 0.2,-0.12 0.4,-0.25 0.6,-0.37 7.75,-4.78 14.08,-10.23 14.18,-10.32 v 0 0 0 0 c -0.28,-8.89 -0.41,-17.83 -0.41,-26.8 0.04,-212.42 75.08,-442.74 75.08,-442.74 0,0 -0.43,-0.39 -1.28,-1.08 -1.31,-1.05 -3.62,-2.8 -6.89,-4.91 -0.17,-0.11 -0.33,-0.22 -0.5,-0.32 -2.31,-1.47 -5.07,-3.1 -8.27,-4.79 -2.17,-1.14 -4.54,-2.31 -7.11,-3.47 -2.8,-1.27 -5.85,-2.52 -9.13,-3.73 -2.89,-1.06 -5.97,-2.09 -9.23,-3.05 -3.04,-0.89 -6.24,-1.72 -9.6,-2.47 -0.6,-0.14 -1.21,-0.27 -1.83,-0.4 -4.43,-0.93 -9.13,-1.72 -14.09,-2.3 -2.86,-0.34 -5.8,-0.61 -8.84,-0.8 -3.58,-0.24 -7.29,-0.36 -11.12,-0.36"
         style="fill:#208f3e;fill-opacity:1;fill-rule:nonzero;stroke:none"
         id="path116" />
      <path
         d="m 1518.37,1729.93 c 0,0 6.51,132.31 68.3,273.95 30.11,69.03 -58.02,16.15 -84.46,-171.88 l 16.16,-102.07"
         style="fill:#2fa347;fill-opacity:1;fill-rule:nonzero;stroke:none"
         id="path118" />
      <path
         d="m 1422.16,1705.69 c 0,0 4.4,79.32 -62.19,251.17 -26.37,68.03 57.27,22.78 83.73,-165.24 l -21.54,-85.93"
         style="fill:#2fa347;fill-opacity:1;fill-rule:nonzero;stroke:none"
         id="path120" />
      <path
         d="m 1072.3,1000.96 c -5.03,8.14 -10.46,15.74 -16.21,22.81 1.31,201.49 89.28,355.17 229.52,451.06 0.26,0.01 0.52,0.01 0.78,0.01 33.4,0 -38.94,-75.41 -69.39,-115.55 -35.81,-47.23 -49.01,-125.1 -60.72,-183.13 -10.95,-54.42 -10.6,-116.2 -53.85,-155.71 -10.18,-9.29 -20.06,-15.48 -30.13,-19.49 m -25.22,33.15 c -12.9,13.84 -27.17,25.27 -42.28,34.26 26.56,219.91 173.83,376.34 259.52,402.59 -130.84,-96.37 -213.31,-245.41 -217.24,-436.85"
         style="fill:#fddbb7;fill-opacity:1;fill-rule:nonzero;stroke:none"
         id="path122" />
      <path
         d="m 1056.09,1023.77 c -2.92,3.59 -5.92,7.03 -9.01,10.34 3.93,191.44 86.4,340.48 217.24,436.85 7.6,2.33 14.72,3.64 21.23,3.87 0.02,0 0.04,0 0.06,0 -140.24,-95.89 -228.21,-249.57 -229.52,-451.06"
         style="fill:#fabf97;fill-opacity:1;fill-rule:nonzero;stroke:none"
         id="path124" />
      <path
         d="m 1102.56,926.879 c 43.94,-182.527 72.95,-354.02 19.49,-396.68 -56.28,-44.91 -237.062,21.942 -391.476,106.75 C 592.168,712.961 574.418,843 645.941,917.852 c 41.442,43.39 79.95,53.886 101.079,70.769 19.632,15.649 49.21,60.439 91.832,84.609 92.023,52.21 227.928,2.42 263.708,-146.351"
         style="fill:#ee2a3c;fill-opacity:1;fill-rule:nonzero;stroke:none"
         id="path126" />
      <path
         d="m 740.477,681.73 c 0,0 -87.547,20.25 -74.438,62.668 13.133,42.422 44.137,-8.367 74.438,-62.668"
         style="fill:#fbc251;fill-opacity:1;fill-rule:nonzero;stroke:none"
         id="path128" />
      <path
         d="m 1027.28,924.992 c 0,0 -0.3,89.868 -44.585,86.488 -44.265,-3.39 -1.632,-44.898 44.585,-86.488"
         style="fill:#fbc251;fill-opacity:1;fill-rule:nonzero;stroke:none"
         id="path130" />
      <path
         d="m 777.172,775.531 c 0,0 -63.988,21.149 -51.277,51.93 12.742,30.777 32.394,-9.289 51.277,-51.93"
         style="fill:#fbc251;fill-opacity:1;fill-rule:nonzero;stroke:none"
         id="path132" />
      <path
         d="m 868.383,811.43 c 0,0 -70.387,22.461 -56.785,56.332 13.617,33.898 35.605,-9.801 56.785,-56.332"
         style="fill:#fbc251;fill-opacity:1;fill-rule:nonzero;stroke:none"
         id="path134" />
      <path
         d="m 933.945,896.172 c 0,0 -21.812,70.609 -55.82,57.308 -34.008,-13.281 9.473,-35.691 55.82,-57.308"
         style="fill:#fbc251;fill-opacity:1;fill-rule:nonzero;stroke:none"
         id="path136" />
      <path
         d="m 1039.2,672.711 c 0,0 -3.23,68.289 -36.76,64.258 -33.545,-4.059 0.25,-34.18 36.76,-64.258"
         style="fill:#fbc251;fill-opacity:1;fill-rule:nonzero;stroke:none"
         id="path138" />
      <path
         d="m 1093.83,692.648 c 0,0 11.86,67.321 -21.75,70.731 -33.61,3.441 -7.26,-33.367 21.75,-70.731"
         style="fill:#fbc251;fill-opacity:1;fill-rule:nonzero;stroke:none"
         id="path140" />
      <path
         d="m 869.594,657.359 c 0,0 -87.563,20.243 -74.422,62.672 13.105,42.418 44.129,-8.383 74.422,-62.672"
         style="fill:#fbc251;fill-opacity:1;fill-rule:nonzero;stroke:none"
         id="path142" />
      <path
         d="m 952.473,707.16 c 0,0 -64,21.149 -51.274,51.93 12.746,30.801 32.387,-9.301 51.274,-51.93"
         style="fill:#fbc251;fill-opacity:1;fill-rule:nonzero;stroke:none"
         id="path144" />
      <path
         d="m 1003.33,795.031 c 0,0 -70.4,22.461 -56.807,56.348 13.614,33.891 35.61,-9.82 56.807,-56.348"
         style="fill:#fbc251;fill-opacity:1;fill-rule:nonzero;stroke:none"
         id="path146" />
      <path
         d="m 926.605,588.922 c 0,0 -62.335,-1.442 -60.804,29.328 1.527,30.801 31.125,1.949 60.804,-29.328"
         style="fill:#fbc251;fill-opacity:1;fill-rule:nonzero;stroke:none"
         id="path148" />
      <path
         d="m 982.246,616.449 c 0,0 -62.605,19.992 -50.527,50.121 12.121,30.141 31.676,-8.73 50.527,-50.121"
         style="fill:#fbc251;fill-opacity:1;fill-rule:nonzero;stroke:none"
         id="path150" />
      <path
         d="m 1092.29,579.77 c 0,0 20.48,65.23 -12.37,72.98 -32.88,7.75 -11.56,-32.168 12.37,-72.98"
         style="fill:#fbc251;fill-opacity:1;fill-rule:nonzero;stroke:none"
         id="path152" />
      <path
         d="m 1063.54,554.082 c 0,0 -65.544,4.988 -60.73,37.109 4.82,32.118 32.86,-1.191 60.73,-37.109"
         style="fill:#fbc251;fill-opacity:1;fill-rule:nonzero;stroke:none"
         id="path154" />
      <path
         d="m 1071.12,822.082 c 0,0 1.15,73.879 -35.3,71.809 -36.457,-2.09 -2.05,-36.891 35.3,-71.809"
         style="fill:#fbc251;fill-opacity:1;fill-rule:nonzero;stroke:none"
         id="path156" />
      <path
         d="m 1150.89,621.551 v 0 c 0.06,2.758 0.09,5.558 0.09,8.398 0,-2.84 -0.03,-5.64 -0.09,-8.398 m -48.33,305.328 c -1.77,7.34 -3.78,14.453 -6.01,21.301 2.23,-6.86 4.24,-13.95 6.01,-21.301 m -6.06,21.453 c -0.02,0.047 -0.03,0.098 -0.05,0.148 0.01,-0.039 0.03,-0.109 0.05,-0.148"
         style="fill:#e5654c;fill-opacity:1;fill-rule:nonzero;stroke:none"
         id="path158" />
      <path
         d="m 1067.94,515.84 c -1.91,0 -3.85,0.031 -5.82,0.09 12.16,26.351 17.85,53.441 20.4,80.84 3.11,-5.559 6.42,-11.27 9.77,-17 0,0 18.51,58.929 -7.87,71.421 -0.06,10.989 -0.27,21.981 -0.42,32.93 -0.1,7.527 -0.41,15.059 -0.92,22.578 3.46,-4.617 7.08,-9.328 10.75,-14.051 0,0 11.01,62.493 -18.24,70.114 -5.03,25.468 -12.15,50.597 -20.98,75.047 5.28,-5.168 10.86,-10.45 16.51,-15.727 0,0 1.12,71.848 -33.82,71.848 -0.49,0 -0.98,-0.008 -1.48,-0.039 -1.72,-0.102 -3.29,-0.27 -4.7,-0.512 -1.19,2.461 -2.4,4.91 -3.63,7.351 -7.85,15.61 -15.71,31.149 -24.05,46.211 7.52,-7.171 15.62,-14.562 23.84,-21.949 0,0 -0.3,86.578 -42.178,86.578 -0.789,0 -1.586,-0.03 -2.407,-0.09 -9.254,-0.71 -14.711,-3.08 -17.129,-6.78 -17.507,21.64 -38.128,40.38 -64.027,54.33 -10.719,5.77 -21.687,10.29 -32.809,13.7 5.723,6.12 13.188,12.72 22.68,18.71 8.117,1.25 16.344,1.88 24.617,1.88 72.813,0 148.933,-48.62 180.423,-144.84 0.02,-0.05 0.03,-0.101 0.05,-0.148 0.02,-0.051 0.03,-0.102 0.05,-0.152 2.23,-6.848 4.24,-13.961 6.01,-21.301 v 0 c 27.03,-112.297 48.42,-220.418 48.42,-296.93 0,-2.84 -0.03,-5.64 -0.09,-8.398 -0.95,-43.59 -9.49,-75.91 -28.84,-91.352 v 0 c -12.46,-9.937 -31.07,-14.359 -54.11,-14.359"
         style="fill:#df212f;fill-opacity:1;fill-rule:nonzero;stroke:none"
         id="path160" />
      <path
         d="m 1027.28,924.992 c -8.22,7.387 -16.32,14.778 -23.84,21.949 -11.338,20.489 -23.569,40.09 -37.874,57.759 2.418,3.7 7.875,6.07 17.129,6.78 0.821,0.06 1.618,0.09 2.407,0.09 41.878,0 42.178,-86.578 42.178,-86.578"
         style="fill:#e56834;fill-opacity:1;fill-rule:nonzero;stroke:none"
         id="path162" />
      <path
         d="m 1093.83,692.648 c -3.67,4.723 -7.29,9.434 -10.75,14.051 -1.29,18.781 -3.83,37.512 -7.49,56.063 29.25,-7.621 18.24,-70.114 18.24,-70.114"
         style="fill:#e56834;fill-opacity:1;fill-rule:nonzero;stroke:none"
         id="path164" />
      <path
         d="m 1092.29,579.77 c -3.35,5.73 -6.66,11.441 -9.77,17 1.68,18.05 1.99,36.242 1.9,54.421 26.38,-12.492 7.87,-71.421 7.87,-71.421"
         style="fill:#e56834;fill-opacity:1;fill-rule:nonzero;stroke:none"
         id="path166" />
      <path
         d="m 1071.12,822.082 c -5.65,5.277 -11.23,10.559 -16.51,15.727 -6.86,18.992 -14.75,37.57 -23.49,55.57 1.41,0.242 2.98,0.41 4.7,0.512 0.5,0.031 0.99,0.039 1.48,0.039 34.94,0 33.82,-71.848 33.82,-71.848"
         style="fill:#e56834;fill-opacity:1;fill-rule:nonzero;stroke:none"
         id="path168" />
      <path
         d="m 807.613,641.121 c -20.89,9.957 -41.773,20.68 -62.047,31.84 -8.019,4.398 -15.511,9.039 -22.48,13.891 10.078,-3.43 17.391,-5.122 17.391,-5.122 v 0 0 c -22.422,40.18 -45.227,78.43 -60.891,78.43 -5.129,0 -9.496,-4.101 -12.828,-13.578 -11.375,20.129 -17.012,41.047 -17.34,61.277 8.57,20.352 25.66,56.082 47.918,78.153 -1.063,-24.09 12.426,-49.282 27.418,-71.211 1.648,-7.082 6.965,-13.43 13.617,-18.852 2.586,-3.437 5.098,-6.738 7.457,-9.879 17.082,-22.66 35.61,-47.41 48,-74.281 -0.086,-7.43 2.942,-14.07 7.828,-19.937 4.938,-15.364 7.457,-31.372 6.297,-48.032 -0.062,-0.898 -0.23,-1.789 -0.34,-2.699"
         style="fill:#f25161;fill-opacity:1;fill-rule:nonzero;stroke:none"
         id="path170" />
      <path
         d="m 740.477,681.73 c 0,0 -7.313,1.692 -17.391,5.122 -25.617,17.789 -44.227,38.308 -56.328,59.73 3.332,9.477 7.699,13.578 12.828,13.578 15.664,0 38.469,-38.25 60.891,-78.43"
         style="fill:#fddd8c;fill-opacity:1;fill-rule:nonzero;stroke:none"
         id="path172" />
      <path
         d="m 738.371,795.949 c -6.652,5.422 -11.969,11.77 -13.617,18.852 4.523,-6.621 9.18,-12.942 13.617,-18.852"
         style="fill:#fddd8c;fill-opacity:1;fill-rule:nonzero;stroke:none"
         id="path174" />
      <path
         d="m 801.656,691.852 c -4.886,5.867 -7.914,12.507 -7.828,19.937 3.008,-6.519 5.656,-13.168 7.828,-19.937"
         style="fill:#fddd8c;fill-opacity:1;fill-rule:nonzero;stroke:none"
         id="path176" />
      <path
         d="m 779.426,965.57 c 0,0 90.793,37.89 156.328,1.91 0,0 -18.094,91.11 -82.746,83.18 0,0 22.93,51.07 92.699,59.43 0,0 -126.644,23.59 -182.496,-59.21 0,0 -37.703,18.16 6.144,84.07 0,0 -73.496,-25.9 -83.835,-136.059 0,0 -65.657,-3.25 -92.196,-84.02 0,0 24.84,4.809 47.656,-1.562 0,0 -19.371,-37.278 2.348,-120.938 0,0 30.93,88.367 74.719,108.75 0,0 75.695,7.18 136.777,-43.711 0,0 7.77,96.281 -75.398,108.16"
         style="fill:#63c141;fill-opacity:1;fill-rule:nonzero;stroke:none"
         id="path178" />
      <path
         d="m 668.156,857.602 c -13.539,52.078 -1.468,75.296 -1.468,75.296 -5.665,1.582 -11.528,2.063 -16.532,2.063 -7.551,0 -13.144,-1.09 -13.144,-1.09 16.535,50.289 65.886,50.59 65.886,50.59 6.446,68.589 35.848,92.509 35.848,92.509 -14.519,-42.27 10.172,-61.43 10.172,-61.43 34.758,51.52 99.832,51.53 99.883,51.53 v 0 c -39.488,-19.63 -42.055,-42.34 -42.055,-42.34 2.531,0.31 4.965,0.45 7.309,0.45 34.968,0 49.429,-32.258 49.429,-32.258 -7.476,4.098 -15.921,5.769 -24.738,5.769 -39.301,0 -85.863,-33.269 -85.863,-33.269 38.504,-3.102 50.293,-59.5 50.293,-59.5 -21.41,17.84 -46.758,21.726 -64.832,21.726 -14.035,0 -23.688,-2.347 -23.688,-2.347 -27.254,-12.672 -46.5,-67.699 -46.5,-67.699"
         style="fill:#32a03d;fill-opacity:1;fill-rule:nonzero;stroke:none"
         id="path180" />
      <path
         d="m 706.16,969.07 c 0,0 -71.433,70.73 -182.043,83.42 0,0 6.176,80.02 53.129,78.57 46.984,-1.49 142.149,-98.51 154.977,-129.35 L 706.16,969.07"
         style="fill:#2fa347;fill-opacity:1;fill-rule:nonzero;stroke:none"
         id="path182" />
      <path
         d="m 2825.92,1123.03 c -43.21,95.87 -117.38,199.05 -98.74,420.9 21.7,258.42 -129.91,427.86 -358.56,427.86 -230.38,0 -382.89,-176.84 -365.49,-436.5 11.02,-164.57 -16.6,-252.16 -76.22,-386.28 -28.82,-64.89 -60.62,-145.11 -60.62,-220.85 0,-314.39 243.01,-450.629 501.31,-450.629 258.27,0 506.81,120.649 506.81,429.84 0,66.258 -22.88,158.809 -48.49,215.659"
         style="fill:#2fa347;fill-opacity:1;fill-rule:nonzero;stroke:none"
         id="path184" />
      <path
         d="m 2684.58,1790.91 c -51.09,98.74 -143.03,162.21 -260.21,177.37 -7.92,2.25 -15.98,4.27 -24.18,6.03 129.32,-9.77 230.59,-76.29 284.39,-183.4"
         style="fill:#b92934;fill-opacity:1;fill-rule:nonzero;stroke:none"
         id="path186" />
      <path
         d="m 2397.74,482.059 c 52.55,7.863 103.05,22.839 148.75,45.82 66.89,24.48 126.41,61.191 172.54,111.851 9.83,-10.968 20.1,-21.5 30.83,-31.601 -89.5,-81.957 -218.14,-120.789 -352.12,-126.07 m 297.11,822.041 c -20.46,64.44 -33.21,144.06 -24.19,251.53 17.91,213.25 -82.25,365.81 -246.29,412.65 117.18,-15.16 209.12,-78.63 260.21,-177.37 33.46,-66.62 48.55,-148.92 40.64,-243.07 -6.65,-79.29 -1.46,-143.43 9.94,-197.48 -14.32,-14.6 -27.79,-30.05 -40.31,-46.26"
         style="fill:#26873e;fill-opacity:1;fill-rule:nonzero;stroke:none"
         id="path188" />
      <path
         d="m 2714.29,1118.37 c -38.47,95.49 -104.53,198.26 -87.94,419.25 19.34,257.4 -115.7,426.15 -319.35,426.15 -205.19,0 -341.02,-176.13 -325.53,-434.78 9.83,-163.9 -14.78,-251.16 -67.89,-384.74 -25.67,-64.64 -53.99,-144.539 -53.99,-219.988 0,-313.153 216.45,-448.864 446.49,-448.864 230.05,0 451.4,120.184 451.4,428.153 0,66 -20.37,158.189 -43.19,214.819"
         style="fill:#63c141;fill-opacity:1;fill-rule:nonzero;stroke:none"
         id="path190" />
      <path
         d="m 2013.74,1302.61 c 27.59,75.12 39.56,137.34 33.29,238.88 -9.86,159.11 59.41,276.42 172.47,313.09 -21.39,-19.78 -37.33,-47.18 -46.99,-73.44 -28,-76.03 1.92,-158.15 -4.25,-236.27 -7.87,-99.77 -65.72,-201.06 -154.52,-242.26"
         style="fill:#9ed557;fill-opacity:1;fill-rule:nonzero;stroke:none"
         id="path192" />
      <path
         d="m 2125.65,506.43 c -2.05,0.761 -4.14,1.429 -6.19,2.218 4.65,-0.738 9.32,-1.398 14.01,-2 -2.61,-0.089 -5.22,-0.179 -7.82,-0.218"
         style="fill:#4aac3a;fill-opacity:1;fill-rule:nonzero;stroke:none"
         id="path194" />
      <path
         d="m 2305.6,475.398 h -0.01 0.01"
         style="fill:#36957c;fill-opacity:1;fill-rule:nonzero;stroke:none"
         id="path196" />
      <path
         d="m 2306.08,475.398 v 0 c -0.16,0 -0.32,0 -0.48,0 h -0.01 c -20.78,0.024 -41.39,1.282 -61.8,3.543 175.4,2.18 344.29,74.821 412.09,248.008 12.43,-21.578 26.4,-42.211 41.72,-61.687 -65.27,-107.492 -176.95,-164.821 -299.86,-183.203 -12.78,-1.911 -25.67,-3.399 -38.65,-4.477 -17.55,-1.461 -35.26,-2.184 -53.01,-2.184"
         style="fill:#4aac3a;fill-opacity:1;fill-rule:nonzero;stroke:none"
         id="path198" />
      <path
         d="m 2306.54,1963.77 c 0.15,0 0.31,0 0.46,0 -0.15,0 -0.31,0 -0.46,0"
         style="fill:#24943d;fill-opacity:1;fill-rule:nonzero;stroke:none"
         id="path200" />
      <path
         d="m 2621.46,1173.79 c -36.86,83.58 -79.21,185.39 -65.55,367.3 17.63,234.61 -93.04,395.52 -266.99,422.17 5.82,0.32 11.68,0.5 17.62,0.51 0.15,0 0.31,0 0.46,0 v 0 c 190.72,0 321.27,-148.01 321.19,-378.23 0,-15.6 -0.61,-31.58 -1.84,-47.92 -1.8,-23.95 -2.62,-46.52 -2.62,-67.84 0.01,-92.34 15.62,-161.27 35.4,-218.28 -14.62,-24.66 -27.25,-50.63 -37.67,-77.71"
         style="fill:#4aac3a;fill-opacity:1;fill-rule:nonzero;stroke:none"
         id="path202" />
      <path
         d="m 2313.33,1471.1 c -91.43,-0.04 -106.45,-210.58 -157.77,-325.56 -132.19,-296.169 -60.41,-506.821 160.48,-516.97 206,-9.461 253.5,205.828 224.62,421.11 -28.27,210.73 -129.72,421.46 -227.33,421.42"
         style="fill:#6f4137;fill-opacity:1;fill-rule:nonzero;stroke:none"
         id="path204" />
      <path
         d="m 2189.78,991.699 c -18.28,0 -36.06,4.02 -49.92,13.921 9.8,38.67 24.19,79.81 43.48,123.02 44.17,98.96 58.27,277.07 132.17,290.28 -14.01,-25.16 -22.28,-51.31 -21.83,-84.29 0.43,-31.27 6.59,-62.93 10.67,-93.87 4.12,-31.36 6.24,-62.6 7.1,-94.22 1.45,-53.27 -4.13,-112.39 -57.01,-139.38 -17.78,-9.07 -41.61,-15.461 -64.66,-15.461"
         style="fill:#a16f5d;fill-opacity:1;fill-rule:nonzero;stroke:none"
         id="path206" />
      <path
         d="m 2331.56,628.27 c -0.42,0 -0.87,0 -1.29,0.011 193.96,0.918 238.59,211.16 210.39,421.399 -26.29,195.92 -115.82,391.83 -206.71,418.37 -0.26,0.29 -0.51,0.58 -0.77,0.87 189.84,-46.68 377.08,-840.69 -1.62,-840.65"
         style="fill:#58762f;fill-opacity:1;fill-rule:nonzero;stroke:none"
         id="path208" />
      <path
         d="m 2330.27,628.281 c -3.82,0.008 -7.71,0.11 -11.65,0.289 -70.75,3.25 -126.18,27.11 -164.53,67.731 28.1,-12.102 60.49,-19.289 96.99,-20.961 4.41,-0.199 8.68,-0.301 12.94,-0.301 332.38,0.07 228.68,612.111 69.93,793.011 90.89,-26.54 180.42,-222.45 206.71,-418.37 28.2,-210.239 -16.43,-420.481 -210.39,-421.399"
         style="fill:#5d2c27;fill-opacity:1;fill-rule:nonzero;stroke:none"
         id="path210" />
      <path
         d="m 3621.97,988.02 c 0,-285.75 -231.67,-517.411 -517.43,-517.411 -285.76,0 -517.43,231.661 -517.43,517.411 0,285.76 231.67,517.44 517.43,517.44 285.76,0 517.43,-231.68 517.43,-517.44"
         style="fill:#f3662a;fill-opacity:1;fill-rule:nonzero;stroke:none"
         id="path212" />
      <path
         d="m 3531.15,988.02 c 0,-235.598 -191,-426.61 -426.61,-426.61 -235.59,0 -426.6,191.012 -426.6,426.61 0,235.63 191.01,426.62 426.6,426.62 235.61,0 426.61,-190.99 426.61,-426.62"
         style="fill:#f78e36;fill-opacity:1;fill-rule:nonzero;stroke:none"
         id="path214" />
      <path
         d="m 3498.49,649.391 c -0.73,0.168 -1.53,0.359 -2.26,0.539 78.03,90.308 125.36,207.902 125.74,336.519 0,-0.519 0,-1.051 0,-1.57 0,-128.008 -46.48,-245.149 -123.48,-335.488"
         style="fill:#608e85;fill-opacity:1;fill-rule:nonzero;stroke:none"
         id="path216" />
      <path
         d="m 3104.54,467.441 c -135.76,0 -259.31,52.289 -351.62,137.829 0.58,0.531 1.14,1.05 1.72,1.589 92.11,-84.609 214.97,-136.25 349.9,-136.25 156.52,0 296.81,69.5 391.69,179.321 0.73,-0.18 1.53,-0.371 2.26,-0.539 -94.91,-111.34 -236.19,-181.95 -393.95,-181.95"
         style="fill:#4d837e;fill-opacity:1;fill-rule:nonzero;stroke:none"
         id="path218" />
      <path
         d="m 2752.92,605.27 c -1.02,0.941 -2.05,1.91 -3.06,2.859 0.57,0.531 1.13,1.043 1.7,1.57 1.02,-0.937 2.05,-1.898 3.08,-2.84 -0.58,-0.539 -1.14,-1.058 -1.72,-1.589 m -33.89,34.46 c -7.41,8.282 -14.55,16.79 -21.43,25.532 0.36,0.59 0.72,1.187 1.08,1.789 6.99,-8.821 14.25,-17.403 21.78,-25.742 -0.47,-0.52 -0.96,-1.059 -1.43,-1.579"
         style="fill:#38823d;fill-opacity:1;fill-rule:nonzero;stroke:none"
         id="path220" />
      <path
         d="m 2749.86,608.129 c -10.73,10.101 -21,20.633 -30.83,31.601 0.47,0.52 0.96,1.059 1.43,1.579 9.92,-10.977 20.28,-21.508 31.1,-31.61 -0.57,-0.527 -1.13,-1.039 -1.7,-1.57"
         style="fill:#2e6d36;fill-opacity:1;fill-rule:nonzero;stroke:none"
         id="path222" />
      <path
         d="m 2655.88,726.949 c -43.75,75.93 -68.77,164 -68.77,257.93 0,0.519 0,1.051 0,1.57 0.28,-93.847 25.54,-181.808 69.5,-257.609 -0.24,-0.629 -0.49,-1.258 -0.73,-1.891"
         style="fill:#6a9838;fill-opacity:1;fill-rule:nonzero;stroke:none"
         id="path224" />
      <path
         d="m 2697.6,665.262 c -15.32,19.476 -29.29,40.109 -41.72,61.687 0.24,0.633 0.49,1.262 0.73,1.891 12.55,-21.629 26.63,-42.289 42.07,-61.789 -0.36,-0.602 -0.72,-1.199 -1.08,-1.789"
         style="fill:#528935;fill-opacity:1;fill-rule:nonzero;stroke:none"
         id="path226" />
      <path
         d="m 3104.54,470.609 c -134.93,0 -257.79,51.641 -349.9,136.25 -1.03,0.942 -2.06,1.903 -3.08,2.84 -10.82,10.102 -21.18,20.633 -31.1,31.61 -7.53,8.339 -14.79,16.921 -21.78,25.742 v 0 c -15.44,19.5 -29.52,40.16 -42.07,61.789 -43.96,75.801 -69.22,163.762 -69.5,257.609 0.85,285.031 232.19,515.841 517.43,515.841 285.24,0 516.58,-230.81 517.43,-515.841 C 3621.59,857.832 3574.26,740.238 3496.23,649.93 3401.35,540.109 3261.06,470.609 3104.54,470.609 m 0,1003.171 c -270,0 -488.9,-218.89 -488.9,-488.901 0,-270.027 218.9,-488.918 488.9,-488.918 270.02,0 488.91,218.891 488.91,488.918 0,270.011 -218.89,488.901 -488.91,488.901"
         style="fill:#f25324;fill-opacity:1;fill-rule:nonzero;stroke:none"
         id="path228" />
      <path
         d="m 3097.23,1013.71 c 0,0 -173.79,382.83 12.45,382.83 184.02,0 -12.45,-382.83 -12.45,-382.83"
         style="fill:#fbc251;fill-opacity:1;fill-rule:nonzero;stroke:none"
         id="path230" />
      <path
         d="m 3097.23,979.469 c 0,0 -165.23,-391.387 11.33,-391.387 205.26,0 -11.33,391.387 -11.33,391.387"
         style="fill:#fbc251;fill-opacity:1;fill-rule:nonzero;stroke:none"
         id="path232" />
      <path
         d="m 3084.8,987.379 c 0,0 -382.83,-152.52 -382.83,12.43 0,192.471 382.83,-12.43 382.83,-12.43"
         style="fill:#fbc251;fill-opacity:1;fill-rule:nonzero;stroke:none"
         id="path234" />
      <path
         d="m 3119.03,987.379 c 0,0 382.83,-173.41 382.83,12.441 0,194.48 -382.83,-12.441 -382.83,-12.441"
         style="fill:#fbc251;fill-opacity:1;fill-rule:nonzero;stroke:none"
         id="path236" />
      <path
         d="m 3112.08,1005.47 c 0,0 134.31,403.95 266.56,275.07 137.99,-134.47 -266.56,-275.07 -266.56,-275.07"
         style="fill:#fbc251;fill-opacity:1;fill-rule:nonzero;stroke:none"
         id="path238" />
      <path
         d="m 3089.31,986.172 c 0,0 -378.2,-168.582 -248.14,-291.793 119.78,-113.438 248.14,291.793 248.14,291.793"
         style="fill:#fbc251;fill-opacity:1;fill-rule:nonzero;stroke:none"
         id="path240" />
      <path
         d="m 3087.85,1002.26 c 0,0 -387.65,153.67 -260.59,280.72 137.55,137.58 260.59,-280.72 260.59,-280.72"
         style="fill:#fbc251;fill-opacity:1;fill-rule:nonzero;stroke:none"
         id="path242" />
      <path
         d="m 3111.94,977.93 c 0,0 161.11,-379.289 278.29,-263.18 117.18,116.102 -278.29,263.18 -278.29,263.18"
         style="fill:#fbc251;fill-opacity:1;fill-rule:nonzero;stroke:none"
         id="path244" />
      <path
         d="m 3300.35,906.262 c 0,0 130.87,-141.5 164.1,-71.883 33.24,69.652 -164.1,71.883 -164.1,71.883"
         style="fill:#fbc251;fill-opacity:1;fill-rule:nonzero;stroke:none"
         id="path246" />
      <path
         d="m 3195.81,789.879 c 0,0 2.68,-171.879 66.2,-145.43 63.52,26.473 -66.2,145.43 -66.2,145.43"
         style="fill:#fbc251;fill-opacity:1;fill-rule:nonzero;stroke:none"
         id="path248" />
      <path
         d="m 3024.26,786.25 c 0,0 -122.52,-120.59 -59.54,-148.27 62.99,-27.699 59.54,148.27 59.54,148.27"
         style="fill:#fbc251;fill-opacity:1;fill-rule:nonzero;stroke:none"
         id="path250" />
      <path
         d="m 2897.81,908.699 c 0,0 -171.9,2.473 -147.34,-61.828 24.54,-64.289 147.34,61.828 147.34,61.828"
         style="fill:#fbc251;fill-opacity:1;fill-rule:nonzero;stroke:none"
         id="path252" />
      <path
         d="m 2893.1,1086.26 c 0,0 -120.24,122.83 -148.11,59.92 -27.86,-62.92 148.11,-59.92 148.11,-59.92"
         style="fill:#fbc251;fill-opacity:1;fill-rule:nonzero;stroke:none"
         id="path254" />
      <path
         d="m 3018.62,1207.32 c 0,0 8.38,171.69 -56.71,149.37 -65.09,-22.31 56.71,-149.37 56.71,-149.37"
         style="fill:#fbc251;fill-opacity:1;fill-rule:nonzero;stroke:none"
         id="path256" />
      <path
         d="m 3191.64,1210.72 c 0,0 114.39,115.49 54.5,140.92 -59.9,25.44 -54.5,-140.92 -54.5,-140.92"
         style="fill:#fbc251;fill-opacity:1;fill-rule:nonzero;stroke:none"
         id="path258" />
      <path
         d="m 3318.4,1084.5 c 0,0 162.56,1.9 137.77,62.08 -24.79,60.16 -137.77,-62.08 -137.77,-62.08"
         style="fill:#fbc251;fill-opacity:1;fill-rule:nonzero;stroke:none"
         id="path260" />
      <path
         d="m 2971.96,1038.83 c -56.59,22.31 -124.25,43.41 -177.69,43.41 -11.77,0 -22.85,-1.02 -32.96,-3.28 1.84,8.49 4.01,16.85 6.51,25.07 37.65,-16.73 104.96,-17.79 121.53,-17.8 2.42,0 3.75,0.03 3.75,0.03 0,0 -57.46,58.69 -102.14,74.16 5.9,11.21 12.43,22.02 19.56,32.4 26.69,-55.23 108.87,-107.73 176.89,-143.58 -5,-3.69 -10.16,-7.16 -15.45,-10.41 m 74.53,77.3 c -28.9,68.46 -70.89,148.34 -119.38,180.31 6.9,3.63 13.96,7.01 21.14,10.14 17.43,-44.03 70.37,-99.26 70.37,-99.26 0,0 3.59,73.65 -12.21,118.21 6.91,1.54 13.91,2.86 20.98,3.95 -11.84,-54.92 5.64,-133.92 26.07,-199.15 -2.11,-4.83 -4.45,-9.57 -6.97,-14.2"
         style="fill:#f9b25e;fill-opacity:1;fill-rule:nonzero;stroke:none"
         id="path262" />
      <path
         d="m 3053.46,1130.33 c -20.43,65.23 -37.91,144.23 -26.07,199.15 15.61,2.41 31.59,3.7 47.85,3.79 -14.07,-46.63 -4.16,-99.27 -7.78,-147.43 -1.46,-19.46 -6.36,-38.11 -14,-55.51"
         style="fill:#fcd780;fill-opacity:1;fill-rule:nonzero;stroke:none"
         id="path264" />
      <path
         d="m 2851.67,1004.17 c -58.75,0.01 -92.07,37.86 -95.47,44.22 1.22,10.34 2.93,20.55 5.11,30.57 10.11,2.26 21.19,3.28 32.96,3.28 53.44,0 121.1,-21.1 177.69,-43.41 -4.61,-2.82 -9.31,-5.48 -14.1,-7.94 -27.77,-14.31 -58.8,-22.13 -89.66,-25.74 -5.71,-0.67 -11.22,-0.98 -16.53,-0.98"
         style="fill:#fcd780;fill-opacity:1;fill-rule:nonzero;stroke:none"
         id="path266" />
      <path
         d="m 2987.41,1049.24 c -68.02,35.85 -150.2,88.35 -176.89,143.58 29.74,43.33 69.78,79.06 116.59,103.62 48.49,-31.97 90.48,-111.85 119.38,-180.31 -14.31,-26.21 -34.9,-49.06 -59.08,-66.89"
         style="fill:#fcd780;fill-opacity:1;fill-rule:nonzero;stroke:none"
         id="path268" />
      <path
         d="m 2889.35,1086.23 c -16.57,0.01 -83.88,1.07 -121.53,17.8 5.96,19.66 13.73,38.51 23.14,56.39 44.68,-15.47 102.14,-74.16 102.14,-74.16 0,0 -1.33,-0.03 -3.75,-0.03"
         style="fill:#fcd780;fill-opacity:1;fill-rule:nonzero;stroke:none"
         id="path270" />
      <path
         d="m 3018.62,1207.32 c 0,0 -52.94,55.23 -70.37,99.26 18.55,8.07 37.99,14.45 58.16,18.95 15.8,-44.56 12.21,-118.21 12.21,-118.21"
         style="fill:#fcd780;fill-opacity:1;fill-rule:nonzero;stroke:none"
         id="path272" />
    </g>
  </g>
</svg>
